<?xml version="1.0" encoding="UTF-8"?>
<svg id="Layer_2" data-name="Layer 2" xmlns="http://www.w3.org/2000/svg" viewBox="0 0 808.45 772.48">
  <defs>
    <style>
      .cls-1 {
        fill: blue;
      }
    </style>
  </defs>
  <g id="Objects">
    <path class="cls-1" d="M436.97,20.08l98.63,193.78c5.34,10.49,15.39,17.79,27.02,19.63l214.77,33.92c29.67,4.69,41.49,41.06,20.24,62.3l-153.81,153.68c-8.33,8.32-12.17,20.13-10.32,31.76l34.11,214.74c4.71,29.67-26.23,52.15-52.99,38.5l-193.69-98.8c-10.49-5.35-22.91-5.35-33.4,0l-193.69,98.8c-26.76,13.65-57.7-8.83-52.99-38.5l34.11-214.74c1.85-11.63-1.99-23.44-10.32-31.76L10.81,329.7c-21.25-21.23-9.43-57.61,20.24-62.3l214.77-33.92c11.63-1.84,21.68-9.14,27.02-19.63L371.47,20.08c13.63-26.77,51.88-26.77,65.5,0Z"/>
  </g>
</svg>